<?xml version="1.0" encoding="UTF-8" standalone="no"?>
<svg
   xmlns:dc="http://purl.org/dc/elements/1.1/"
   xmlns:cc="http://creativecommons.org/ns#"
   xmlns:rdf="http://www.w3.org/1999/02/22-rdf-syntax-ns#"
   xmlns:svg="http://www.w3.org/2000/svg"
   xmlns="http://www.w3.org/2000/svg"
   xmlns:xlink="http://www.w3.org/1999/xlink"
   xmlns:sodipodi="http://sodipodi.sourceforge.net/DTD/sodipodi-0.dtd"
   xmlns:inkscape="http://www.inkscape.org/namespaces/inkscape"
   width="32"
   height="32"
   version="1"
   id="svg8"
   sodipodi:docname="anatine.svg"
   inkscape:version="1.0.1 (3bc2e813f5, 2020-09-07)">
  <metadata
     id="metadata14">
    <rdf:RDF>
      <cc:Work
         rdf:about="">
        <dc:format>image/svg+xml</dc:format>
        <dc:type
           rdf:resource="http://purl.org/dc/dcmitype/StillImage" />
      </cc:Work>
    </rdf:RDF>
  </metadata>
  <defs
     id="defs12">
    <linearGradient
       id="linearGradient838"
       inkscape:collect="always">
      <stop
         id="stop834"
         offset="0"
         style="stop-color:#ffffff;stop-opacity:1;" />
      <stop
         id="stop836"
         offset="1"
         style="stop-color:#f2f2f2;stop-opacity:1" />
    </linearGradient>
    <linearGradient
       gradientUnits="userSpaceOnUse"
       y2="30"
       x2="16"
       y1="2"
       x1="16"
       id="linearGradient840"
       xlink:href="#linearGradient838"
       inkscape:collect="always" />
    <filter
       inkscape:collect="always"
       style="color-interpolation-filters:sRGB"
       id="filter17594"
       x="-0.075"
       width="1.15"
       y="-0.075"
       height="1.15">
      <feGaussianBlur
         inkscape:collect="always"
         stdDeviation="0.875"
         id="feGaussianBlur17596" />
    </filter>
  </defs>
  <sodipodi:namedview
     inkscape:document-rotation="0"
     pagecolor="#ffffff"
     bordercolor="#666666"
     borderopacity="1"
     objecttolerance="10"
     gridtolerance="10"
     guidetolerance="10"
     inkscape:pageopacity="0"
     inkscape:pageshadow="2"
     inkscape:window-width="1920"
     inkscape:window-height="1000"
     id="namedview10"
     showgrid="false"
     inkscape:zoom="23.8125"
     inkscape:cx="13.900262"
     inkscape:cy="16"
     inkscape:window-x="0"
     inkscape:window-y="0"
     inkscape:window-maximized="1"
     inkscape:current-layer="svg8" />
  <circle
     r="14"
     cy="16"
     cx="16"
     id="path839-3"
     style="opacity:0.5;fill:#000000;fill-opacity:1;stroke:none;stroke-width:1.2816;filter:url(#filter17594)" />
  <circle
     style="opacity:1;fill:url(#linearGradient840);stroke:none;stroke-width:1.2816;fill-opacity:1"
     id="path839"
     cx="16"
     cy="16"
     r="14" />
  <path
     fill="#2aa2ee"
     d="M 14.499236,23.992445 C 12.70599,23.809018 11.456911,23.295878 10.534003,22.363884 10.161091,21.987314 9.9077779,21.641031 9.6972649,21.21989 9.2517248,20.329039 9.1120685,19.326759 9.3301814,18.585621 c 0.2168559,-0.737139 0.7102246,-1.549705 1.4046206,-2.314272 0.385597,-0.423998 0.580682,-0.699425 0.759081,-1.045708 0.215141,-0.417141 0.238341,-0.696568 0.220227,-1.083994 -0.01754,-0.375998 -0.09823,-0.537711 -0.304398,-0.709138 -0.195428,-0.161714 -0.275999,-0.251427 -0.880738,-0.222285 -0.590282,0.028 -0.8797659,-0.008 -1.1617071,-0.143999 -0.2186844,-0.105714 -0.2961696,-0.225141 -0.22857,-0.352569 0.3515407,-0.27417 0.4748542,-0.574111 0.8611376,-0.71371 -0.565368,-0.482169 -1.1235932,-0.986623 -1.1428502,-1.706961 0.039714,-0.3858265 0.3966833,-0.293027 0.3966833,-0.293027 0.5597281,0.113376 1.1382214,0.227399 1.6653614,0.245216 0.151593,-0.02056 0.311404,-0.06098 0.355146,-0.08983 0.04374,-0.02885 0.162948,-0.1998049 0.264907,-0.3799124 0.397369,-0.7019386 0.818167,-1.1551359 1.289593,-1.3887916 0.543202,-0.2692669 1.311763,-0.4133061 2.041244,-0.382552 0.877024,0.036971 1.621933,0.3402208 2.230215,0.9079374 0.418152,0.3902491 0.694853,0.4878313 1.092565,0.3852891 0.279775,-0.072137 0.28609,-0.071782 0.28609,0.015977 0,0.1153251 -0.09203,0.2647584 -0.23329,0.3788092 l -0.130131,0.1050622 0.131182,0.077897 c 0.180782,0.1073479 0.15937,0.1936791 -0.05571,0.2246381 -0.179148,0.02579 -0.313415,0.08521 -0.313415,0.138691 0,0.01889 0.02571,0.18253 0.05714,0.363661 0.0771,0.444374 0.04963,1.30542 -0.0552,1.730332 -0.162284,0.658968 -0.408569,1.122965 -0.828566,1.563533 -0.326855,0.297142 -1.250278,0.906852 -1.336563,0.961138 0.04043,0 0.394186,-0.02077 0.631024,2.24e-4 0.866795,0.07683 1.470449,0.222924 2.3409,0.628567 0.822167,0.383124 1.171536,0.424443 1.626562,0.19233 0.290347,-0.148107 0.705996,-0.4641 1.016565,-0.88268 0.265713,-0.357712 0.423998,-0.509711 0.670853,-0.509711 0.241719,0 0.415364,0.159313 0.59834,0.438569 0.25909,0.395466 0.40042,0.677881 0.500968,1.366734 0.07186,0.492289 0.05167,1.647876 -0.03736,2.138673 -0.532089,2.933182 -2.404043,4.90797 -5.261911,5.550938 -0.77131,0.17353 -1.082051,0.204724 -2.150901,0.215896 -0.554494,0.0058 -1.071822,0.004 -1.149651,-0.0039 z"
     id="path2"
     style="stroke-width:0.571425" />
</svg>
