<?xml version="1.0" encoding="UTF-8" standalone="no"?>
<svg
   xmlns:dc="http://purl.org/dc/elements/1.1/"
   xmlns:cc="http://creativecommons.org/ns#"
   xmlns:rdf="http://www.w3.org/1999/02/22-rdf-syntax-ns#"
   xmlns:svg="http://www.w3.org/2000/svg"
   xmlns="http://www.w3.org/2000/svg"
   xmlns:xlink="http://www.w3.org/1999/xlink"
   xmlns:sodipodi="http://sodipodi.sourceforge.net/DTD/sodipodi-0.dtd"
   xmlns:inkscape="http://www.inkscape.org/namespaces/inkscape"
   inkscape:version="1.0.1 (3bc2e813f5, 2020-09-07)"
   sodipodi:docname="cantata.svg"
   id="svg14"
   version="1.1"
   height="32"
   width="32">
  <metadata
     id="metadata20">
    <rdf:RDF>
      <cc:Work
         rdf:about="">
        <dc:format>image/svg+xml</dc:format>
        <dc:type
           rdf:resource="http://purl.org/dc/dcmitype/StillImage" />
      </cc:Work>
    </rdf:RDF>
  </metadata>
  <defs
     id="defs18">
    <linearGradient
       id="linearGradient853"
       inkscape:collect="always">
      <stop
         id="stop849"
         offset="0"
         style="stop-color:#676767;stop-opacity:1" />
      <stop
         id="stop851"
         offset="1"
         style="stop-color:#373737;stop-opacity:1" />
    </linearGradient>
    <filter
       height="1.216"
       y="-0.108"
       width="1.216"
       x="-0.108"
       id="filter845"
       style="color-interpolation-filters:sRGB"
       inkscape:collect="always">
      <feGaussianBlur
         id="feGaussianBlur847"
         stdDeviation="0.90000001"
         inkscape:collect="always" />
    </filter>
    <linearGradient
       gradientTransform="rotate(90,16,16.000002)"
       gradientUnits="userSpaceOnUse"
       y2="16.000002"
       x2="30"
       y1="16.000002"
       x1="2"
       id="linearGradient855"
       xlink:href="#linearGradient853"
       inkscape:collect="always" />
    <filter
       inkscape:collect="always"
       style="color-interpolation-filters:sRGB"
       id="filter60800"
       x="-0.075"
       width="1.15"
       y="-0.075"
       height="1.15">
      <feGaussianBlur
         inkscape:collect="always"
         stdDeviation="0.875"
         id="feGaussianBlur60802" />
    </filter>
  </defs>
  <sodipodi:namedview
     inkscape:current-layer="svg14"
     inkscape:window-maximized="1"
     inkscape:window-y="0"
     inkscape:window-x="0"
     inkscape:cy="16"
     inkscape:cx="14.974359"
     inkscape:zoom="24.375"
     showgrid="false"
     id="namedview16"
     inkscape:window-height="1000"
     inkscape:window-width="1920"
     inkscape:pageshadow="2"
     inkscape:pageopacity="0"
     guidetolerance="10"
     gridtolerance="10"
     objecttolerance="10"
     borderopacity="1"
     bordercolor="#666666"
     pagecolor="#ffffff"
     inkscape:document-rotation="0" />
  <path
     id="path2"
     d="m 29.999781,16.078316 a 14,14 0 1 0 -27.9995619,0 14,14 0 0 0 27.9995619,0"
     style="opacity:0.5;filter:url(#filter60800)" />
  <path
     id="path4"
     d="m 15.921684,29.999783 a 14,14 0 1 0 0,-27.9995617 14,14 0 0 0 0,27.9995617"
     style="fill:url(#linearGradient855);fill-opacity:1" />
  <path
     id="path6"
     d="m 6.0000001,16.000001 c 0,5.514038 4.4859619,10 10.0000009,10 5.514038,0 9.999999,-4.485962 9.999999,-10 0,-5.514038 -4.485961,-10.0000008 -9.999999,-10.0000008 -5.514039,0 -10.0000009,4.4859628 -10.0000009,10.0000008 z"
     style="opacity:0.5;filter:url(#filter845)" />
  <path
     id="path8"
     d="m 6.0000001,16 c 0,5.514038 4.4859619,10 10.0000009,10 C 21.514039,26 26,21.514038 26,16 26,10.485962 21.514039,5.9999999 16.000001,5.9999999 10.485962,5.9999999 6.0000001,10.485962 6.0000001,16 Z"
     style="fill:#ffffff" />
  <path
     id="path10"
     d="m 16,8.7330011 0,7.6309979 c -0.67288,-0.238074 -1.349099,-0.362828 -2.1,-0.364 -2.706195,0 -4.9,1.567003 -4.9,3.5 0,1.932997 2.193805,3.5 4.9,3.5 2.706195,0 5.1,-1.567003 5.1,-3.5 L 19,11 c 0,0 1.40919,1.216259 1.8845,2.477607 0.242945,0.644713 0.242226,1.301205 -0.316004,1.813085 -0.453263,0.259997 -0.60189,0.661842 -0.522265,1.011717 0.120915,0.531315 0.767227,0.944064 1.665234,0.561915 1.349275,-0.703481 1.788035,-1.964648 1.788035,-3.014649 0,-3.15 -3.9995,-5.8499995 -6.7995,-5.8499995 -0.7,0 -0.7,0.7333256 -0.7,0.7333256 z"
     style="fill:#366adb" />
</svg>
