<?xml version="1.0" encoding="UTF-8" standalone="no"?>
<svg
   xmlns:dc="http://purl.org/dc/elements/1.1/"
   xmlns:cc="http://creativecommons.org/ns#"
   xmlns:rdf="http://www.w3.org/1999/02/22-rdf-syntax-ns#"
   xmlns:svg="http://www.w3.org/2000/svg"
   xmlns="http://www.w3.org/2000/svg"
   xmlns:xlink="http://www.w3.org/1999/xlink"
   xmlns:sodipodi="http://sodipodi.sourceforge.net/DTD/sodipodi-0.dtd"
   xmlns:inkscape="http://www.inkscape.org/namespaces/inkscape"
   width="32"
   height="32"
   version="1"
   id="svg12"
   sodipodi:docname="preferences-system.svg"
   inkscape:version="1.0.1 (3bc2e813f5, 2020-09-07)">
  <metadata
     id="metadata18">
    <rdf:RDF>
      <cc:Work
         rdf:about="">
        <dc:format>image/svg+xml</dc:format>
        <dc:type
           rdf:resource="http://purl.org/dc/dcmitype/StillImage" />
        <dc:title />
      </cc:Work>
    </rdf:RDF>
  </metadata>
  <defs
     id="defs16">
    <linearGradient
       inkscape:collect="always"
       id="linearGradient966">
      <stop
         style="stop-color:#cccccc;stop-opacity:1"
         offset="0"
         id="stop962" />
      <stop
         style="stop-color:#e5e5e5;stop-opacity:0.99718523"
         offset="1"
         id="stop964" />
    </linearGradient>
    <linearGradient
       inkscape:collect="always"
       id="linearGradient849">
      <stop
         style="stop-color:#00e3d8;stop-opacity:1"
         offset="0"
         id="stop845" />
      <stop
         style="stop-color:#004af5;stop-opacity:1"
         offset="1"
         id="stop847" />
    </linearGradient>
    <linearGradient
       inkscape:collect="always"
       xlink:href="#linearGradient849"
       id="linearGradient851"
       x1="16.725367"
       y1="23.890873"
       x2="16.300804"
       y2="8.7173433"
       gradientUnits="userSpaceOnUse"
       gradientTransform="matrix(0.75,0,0,0.75,4,-28)" />
    <linearGradient
       inkscape:collect="always"
       xlink:href="#linearGradient966"
       id="linearGradient968"
       x1="15.291743"
       y1="30"
       x2="15.879423"
       y2="1.9356713"
       gradientUnits="userSpaceOnUse" />
    <filter
       inkscape:collect="always"
       style="color-interpolation-filters:sRGB"
       id="filter866"
       x="-0.074999999"
       width="1.15"
       y="-0.075000001"
       height="1.15">
      <feGaussianBlur
         inkscape:collect="always"
         stdDeviation="0.43749999"
         id="feGaussianBlur868" />
    </filter>
    <filter
       inkscape:collect="always"
       style="color-interpolation-filters:sRGB"
       id="filter60129"
       x="-0.077884616"
       width="1.1557692"
       y="-0.072321428"
       height="1.1446429">
      <feGaussianBlur
         inkscape:collect="always"
         stdDeviation="0.84374999"
         id="feGaussianBlur60131" />
    </filter>
  </defs>
  <sodipodi:namedview
     pagecolor="#ffffff"
     bordercolor="#666666"
     borderopacity="1"
     objecttolerance="10"
     gridtolerance="10"
     guidetolerance="10"
     inkscape:pageopacity="0"
     inkscape:pageshadow="2"
     inkscape:window-width="1920"
     inkscape:window-height="850"
     id="namedview14"
     showgrid="false"
     inkscape:zoom="16.1875"
     inkscape:cx="-8.8648647"
     inkscape:cy="15.413127"
     inkscape:window-x="0"
     inkscape:window-y="0"
     inkscape:window-maximized="1"
     inkscape:current-layer="svg12"
     inkscape:document-rotation="0" />
  <path
     inkscape:connector-curvature="0"
     id="path4-4"
     d="m 15.291743,30 c -1.569056,0 -2.832035,-1.248604 -2.832035,-2.799804 v -1.3125 A 10.620875,10.500001 0 0 1 9.1100633,23.97461 l -1.150791,0.65625 c -1.358844,0.7756 -3.084703,0.317988 -3.869232,-1.025391 l -0.708255,-1.210938 c -0.784528,-1.343378 -0.32165,-3.049595 1.037194,-3.825195 l 1.145853,-0.654297 A 10.620875,10.500001 0 0 1 5.3791253,16 10.620875,10.500001 0 0 1 5.5648323,14.084961 l -1.145853,-0.654297 c -1.358844,-0.7756 -1.821722,-2.481816 -1.037194,-3.8251952 l 0.708255,-1.210938 c 0.784529,-1.343379 2.510388,-1.80099 3.869232,-1.02539 l 1.142887,0.652343 A 10.620875,10.500001 0 0 1 12.459708,6.1152348 V 4.799805 C 12.459708,3.2486051 13.722687,2 15.291743,2 h 1.416513 c 1.569058,0 2.832035,1.2486051 2.832035,2.799805 v 1.3203118 a 10.620875,10.500001 0 0 1 3.349646,1.905274 l 1.150792,-0.65625 c 1.358843,-0.7756 3.084701,-0.317989 3.86923,1.02539 l 0.708256,1.210938 c 0.784528,1.3433792 0.321649,3.0495952 -1.037195,3.8251952 l -1.145854,0.654297 A 10.620875,10.500001 0 0 1 26.620873,16 10.620875,10.500001 0 0 1 26.435166,17.915039 l 1.145854,0.654297 c 1.358844,0.7756 1.821723,2.481817 1.037195,3.825195 l -0.708256,1.210938 c -0.784529,1.34338 -2.510387,1.800991 -3.86923,1.025391 l -1.142891,-0.652345 a 10.620875,10.500001 0 0 1 -3.357547,1.907227 v 1.314454 C 19.540291,28.751396 18.277314,30 16.708256,30 Z m 0.708256,-8.000976 c 3.351757,0 6.069072,-2.68639 6.069072,-6 0,-3.313611 -2.717315,-5.9990242 -6.069072,-5.9990242 -3.351756,0 -6.0690677,2.6854132 -6.0690677,5.9990242 0,3.31361 2.7173117,6 6.0690677,6 z"
     style="fill:#000000;fill-opacity:1;stroke-width:0.50287;opacity:0.5;filter:url(#filter60129)" />
  <path
     style="fill:url(#linearGradient968);fill-opacity:1;stroke-width:0.50287"
     d="m 15.291743,30 c -1.569056,0 -2.832035,-1.248604 -2.832035,-2.799804 v -1.3125 A 10.620875,10.500001 0 0 1 9.1100638,23.97461 L 7.9592723,24.63086 C 6.6004287,25.40646 4.8745694,24.948848 4.0900402,23.605469 L 3.3817852,22.394531 C 2.5972569,21.051153 3.0601356,19.344936 4.4189793,18.569336 L 5.5648325,17.915039 A 10.620875,10.500001 0 0 1 5.3791254,16 10.620875,10.500001 0 0 1 5.5648325,14.084961 L 4.4189793,13.430664 C 3.0601356,12.655064 2.5972569,10.948848 3.3817852,9.6054689 l 0.708255,-1.210938 c 0.7845292,-1.343379 2.5103885,-1.80099 3.8692321,-1.02539 l 1.1428875,0.652343 A 10.620875,10.500001 0 0 1 12.459708,6.1152349 V 4.7998051 c 0,-1.5511999 1.262979,-2.799805 2.832035,-2.799805 h 1.416513 c 1.569058,0 2.832035,1.2486051 2.832035,2.799805 v 1.3203118 a 10.620875,10.500001 0 0 1 3.349646,1.905274 l 1.150792,-0.65625 c 1.358843,-0.7756 3.084701,-0.317989 3.86923,1.02539 l 0.708256,1.210938 c 0.784528,1.3433791 0.321649,3.0495951 -1.037195,3.8251951 l -1.145854,0.654297 A 10.620875,10.500001 0 0 1 26.620873,16 10.620875,10.500001 0 0 1 26.435166,17.915039 l 1.145854,0.654297 c 1.358844,0.7756 1.821723,2.481817 1.037195,3.825195 l -0.708256,1.210938 c -0.784529,1.34338 -2.510387,1.800991 -3.86923,1.025391 l -1.142891,-0.652345 a 10.620875,10.500001 0 0 1 -3.357547,1.907227 v 1.314454 C 19.540291,28.751396 18.277314,30 16.708256,30 Z m 0.708256,-8.000976 c 3.351757,0 6.069072,-2.68639 6.069072,-6 0,-3.313611 -2.717315,-5.9990241 -6.069072,-5.9990241 -3.351756,0 -6.0690678,2.6854131 -6.0690678,5.9990241 0,3.31361 2.7173118,6 6.0690678,6 z"
     id="path4"
     inkscape:connector-curvature="0" />
  <circle
     style="fill:url(#linearGradient851);fill-opacity:1;stroke-width:0.480939"
     id="path843"
     cx="16"
     cy="-16"
     r="6"
     transform="scale(1,-1)" />
  <path
     style="color:#000000;font-style:normal;font-variant:normal;font-weight:normal;font-stretch:normal;font-size:medium;line-height:normal;font-family:sans-serif;font-variant-ligatures:normal;font-variant-position:normal;font-variant-caps:normal;font-variant-numeric:normal;font-variant-alternates:normal;font-variant-east-asian:normal;font-feature-settings:normal;font-variation-settings:normal;text-indent:0;text-align:start;text-decoration:none;text-decoration-line:none;text-decoration-style:solid;text-decoration-color:#000000;letter-spacing:normal;word-spacing:normal;text-transform:none;writing-mode:lr-tb;direction:ltr;text-orientation:mixed;dominant-baseline:auto;baseline-shift:baseline;text-anchor:start;white-space:normal;shape-padding:0;shape-margin:0;inline-size:0;clip-rule:nonzero;display:inline;overflow:visible;visibility:visible;opacity:0.5;isolation:auto;mix-blend-mode:normal;color-interpolation:sRGB;color-interpolation-filters:linearRGB;solid-color:#000000;solid-opacity:1;vector-effect:none;fill:#000000;fill-opacity:1;fill-rule:nonzero;stroke:none;stroke-width:2;stroke-linecap:butt;stroke-linejoin:miter;stroke-miterlimit:4;stroke-dasharray:none;stroke-dashoffset:0;stroke-opacity:1;filter:url(#filter866);color-rendering:auto;image-rendering:auto;shape-rendering:auto;text-rendering:auto;enable-background:accumulate;stop-color:#000000;stop-opacity:1"
     d="m 16,9.6 c -3.854148,0 -6.9999999,3.145851 -6.9999999,7 0,3.854148 3.1458519,7 6.9999999,7 3.854149,0 7,-3.145852 7,-7 0,-3.854149 -3.145851,-7 -7,-7 z m 0,2 c 2.773269,0 5.000001,2.226731 5,5 0,2.773268 -2.226731,5 -5,5 -2.773268,0 -5,-2.226732 -5,-5 0,-2.773269 2.226732,-5 5,-5 z"
     id="path864" />
  <circle
     r="6"
     cy="16"
     cx="16"
     id="path843-8"
     style="fill:none;fill-opacity:1;stroke:#fffeff;stroke-width:2;stroke-miterlimit:4;stroke-dasharray:none;stroke-opacity:1" />
</svg>
